<svg id="Layer_1" data-name="Layer 1" xmlns="http://www.w3.org/2000/svg" xmlns:xlink="http://www.w3.org/1999/xlink" viewBox="0 0 1366 768"><defs><style>.cls-1{fill:#14967f;}.cls-2{fill:#095d7e;}.cls-3{font-size:12px;font-family:MyriadPro-Regular, Myriad Pro;}.cls-4{letter-spacing:-0.03em;}.cls-5{letter-spacing:-0.01em;}.cls-6{letter-spacing:-0.01em;}.cls-7{letter-spacing:0.01em;}.cls-8{letter-spacing:-0.01em;}.cls-9{letter-spacing:0em;}.cls-10{letter-spacing:-0.01em;}.cls-11{letter-spacing:0em;}.cls-12{letter-spacing:0em;}.cls-13{letter-spacing:0.01em;}.cls-14{letter-spacing:-0.01em;}.cls-15{letter-spacing:0.01em;}</style></defs><path class="cls-1" d="M706.63,296H601.45V398h104a34,34,0,0,0,34-34V328.79A32.79,32.79,0,0,0,706.63,296Zm1.25,64.85a6.6,6.6,0,0,1-6.6,6.6H633V325.07h67.8a7.09,7.09,0,0,1,7.09,7.1Z"/><path class="cls-2" d="M886.26,367.45V398H784.63a37.81,37.81,0,0,1-37.82-37.81V298.46H854.32a29.48,29.48,0,0,1,29.48,29.48v17.34H851.28V333.62a8.55,8.55,0,0,0-8.55-8.55h-62.9v31.85a10.52,10.52,0,0,0,10.52,10.53Z"/><polygon class="cls-1" points="517.49 316.08 479.8 398 479.74 398 479.74 320.89 491.19 296 508.25 296 517.49 316.08"/><polygon class="cls-2" points="590.95 398 555.18 398 542.91 371.33 513.03 360.8 538.06 360.8 517.49 316.08 508.25 296 544.02 296 590.95 398"/><image width="900" height="600" transform="translate(-372 -159) scale(0.41)" xlink:href="../medical%208%20Color%20Palette%20-%20color-hex.com.png"/><path class="cls-1" d="M509.56,427.54c-.25-4.7-.55-10.35-.5-14.55h-.15c-1.15,3.95-2.55,8.15-4.25,12.8l-6,16.35h-3.3L490,426.09c-1.6-4.75-2.95-9.1-3.9-13.1H486c-.1,4.2-.35,9.85-.65,14.9l-.9,14.45h-4.15l2.35-33.7h5.55l5.75,16.3c1.4,4.15,2.55,7.85,3.4,11.35h.15c.85-3.4,2.05-7.1,3.55-11.35l6-16.3h5.55l2.1,33.7h-4.25Z"/><path class="cls-1" d="M524.06,431c.1,5.95,3.9,8.4,8.3,8.4a15.91,15.91,0,0,0,6.7-1.25l.75,3.15a19.6,19.6,0,0,1-8,1.5c-7.45,0-11.9-4.9-11.9-12.2s4.3-13.05,11.35-13.05c7.9,0,10,7,10,11.4a16.6,16.6,0,0,1-.15,2.05Zm12.9-3.15c0-2.8-1.15-7.15-6.1-7.15-4.45,0-6.4,4.1-6.75,7.15Z"/><path class="cls-1" d="M567.66,406.84v29.25c0,2.15.05,4.6.2,6.25h-4l-.2-4.2h-.1a9,9,0,0,1-8.25,4.75c-5.85,0-10.35-4.95-10.35-12.3,0-8,5-13,10.85-13,3.7,0,6.2,1.75,7.3,3.7h.1V406.84ZM563.26,428a7.77,7.77,0,0,0-.2-1.85,6.47,6.47,0,0,0-6.35-5.1c-4.55,0-7.25,4-7.25,9.35,0,4.9,2.4,8.95,7.15,8.95a6.61,6.61,0,0,0,6.45-5.25,7.64,7.64,0,0,0,.2-1.9Z"/><path class="cls-1" d="M580,411.34a2.73,2.73,0,0,1-5.45,0,2.68,2.68,0,0,1,2.75-2.75A2.61,2.61,0,0,1,580,411.34Zm-4.9,31v-24.2h4.4v24.2Z"/><path class="cls-1" d="M587,408.64h18.15v3.65h-13.8v11.2h12.75v3.6H591.36v15.25H587Z"/><path class="cls-1" d="M631.66,430c0,8.95-6.2,12.85-12,12.85-6.55,0-11.6-4.8-11.6-12.45,0-8.1,5.3-12.85,12-12.85C627,417.59,631.66,422.64,631.66,430Zm-19.2.25c0,5.3,3,9.3,7.35,9.3s7.35-3.95,7.35-9.4c0-4.1-2-9.3-7.25-9.3S612.46,425.69,612.46,430.29Z"/><path class="cls-1" d="M637.31,425.69c0-2.85,0-5.3-.2-7.55H641l.15,4.75h.2a7.26,7.26,0,0,1,6.7-5.3,4.76,4.76,0,0,1,1.25.15v4.15a6.61,6.61,0,0,0-1.5-.15c-3.1,0-5.3,2.35-5.9,5.65a12.38,12.38,0,0,0-.2,2.05v12.9h-4.35Z"/><path class="cls-1" d="M674.21,418.14c-.1,1.75-.2,3.7-.2,6.65v14c0,5.55-1.1,9-3.45,11.05s-5.75,2.9-8.8,2.9a15.62,15.62,0,0,1-8-2l1.1-3.35a13.65,13.65,0,0,0,7.1,1.9c4.5,0,7.8-2.35,7.8-8.45v-2.7h-.1a8.64,8.64,0,0,1-7.7,4.05c-6,0-10.3-5.1-10.3-11.8,0-8.2,5.35-12.85,10.9-12.85a8,8,0,0,1,7.55,4.2h.1l.2-3.65Zm-4.55,9.55a6.27,6.27,0,0,0-.25-2,6.34,6.34,0,0,0-6.15-4.65c-4.2,0-7.2,3.55-7.2,9.15,0,4.75,2.4,8.7,7.15,8.7a6.43,6.43,0,0,0,6.1-4.5,7.66,7.66,0,0,0,.35-2.35Z"/><path class="cls-1" d="M683.86,431c.1,5.95,3.9,8.4,8.3,8.4a15.91,15.91,0,0,0,6.7-1.25l.75,3.15a19.6,19.6,0,0,1-8.05,1.5c-7.45,0-11.9-4.9-11.9-12.2S684,417.59,691,417.59c7.9,0,10,7,10,11.4a16.6,16.6,0,0,1-.15,2.05Zm12.9-3.15c0-2.8-1.15-7.15-6.1-7.15-4.45,0-6.4,4.1-6.75,7.15Z"/><path class="cls-2" d="M719.73,424.34h-6.15v-2.22h15v2.22h-6.18v18h-2.64Z"/><path class="cls-2" d="M730.05,435.56c.06,3.57,2.34,5,5,5a9.55,9.55,0,0,0,4-.75l.45,1.89a11.76,11.76,0,0,1-4.83.9c-4.47,0-7.14-2.94-7.14-7.32s2.58-7.83,6.81-7.83c4.74,0,6,4.17,6,6.84a10,10,0,0,1-.09,1.23Zm7.74-1.89c0-1.68-.69-4.29-3.66-4.29-2.67,0-3.84,2.46-4,4.29Z"/><path class="cls-2" d="M754,441.8a9.72,9.72,0,0,1-4.17.84c-4.38,0-7.23-3-7.23-7.41a7.38,7.38,0,0,1,7.8-7.71,8.82,8.82,0,0,1,3.66.75l-.6,2a6.12,6.12,0,0,0-3.06-.69c-3.33,0-5.13,2.46-5.13,5.49,0,3.36,2.16,5.43,5,5.43a7.5,7.5,0,0,0,3.24-.72Z"/><path class="cls-2" d="M757.05,421h2.64v9.06h.06a4.9,4.9,0,0,1,1.89-1.86,5.43,5.43,0,0,1,2.7-.75c1.95,0,5.07,1.2,5.07,6.21v8.64h-2.64V434c0-2.34-.87-4.32-3.36-4.32a3.79,3.79,0,0,0-3.54,2.64,3.2,3.2,0,0,0-.18,1.26v8.76h-2.64Z"/><path class="cls-2" d="M773.7,431.75c0-1.5,0-2.73-.12-3.93h2.34l.15,2.4h.06a5.34,5.34,0,0,1,4.8-2.73c2,0,5.13,1.2,5.13,6.18v8.67h-2.64V434c0-2.34-.88-4.29-3.36-4.29a3.75,3.75,0,0,0-3.54,2.7,3.8,3.8,0,0,0-.18,1.23v8.73H773.7Z"/><path class="cls-2" d="M803.48,435c0,5.37-3.72,7.71-7.23,7.71-3.92,0-7-2.88-7-7.47,0-4.86,3.18-7.71,7.21-7.71S803.48,430.52,803.48,435Zm-11.52.15c0,3.18,1.83,5.58,4.42,5.58s4.41-2.37,4.41-5.64c0-2.46-1.24-5.58-4.36-5.58S792,432.35,792,435.11Z"/><path class="cls-2" d="M806.81,421h2.65v21.3h-2.65Z"/><path class="cls-2" d="M827,435c0,5.37-3.72,7.71-7.23,7.71-3.92,0-7-2.88-7-7.47,0-4.86,3.19-7.71,7.2-7.71C824.21,427.49,827,430.52,827,435Zm-11.52.15c0,3.18,1.83,5.58,4.41,5.58s4.41-2.37,4.41-5.64c0-2.46-1.23-5.58-4.35-5.58S815.51,432.35,815.51,435.11Z"/><path class="cls-2" d="M842.87,427.82c-.06,1.05-.12,2.22-.12,4v8.43c0,3.33-.66,5.37-2.07,6.63a7.7,7.7,0,0,1-5.28,1.74,9.42,9.42,0,0,1-4.83-1.2l.66-2a8.19,8.19,0,0,0,4.26,1.14c2.7,0,4.68-1.41,4.68-5.07v-1.62h-.06a5.18,5.18,0,0,1-4.62,2.43c-3.6,0-6.18-3.06-6.18-7.08,0-4.92,3.21-7.71,6.54-7.71a4.83,4.83,0,0,1,4.53,2.52h.06l.12-2.19Zm-2.73,5.73a3.76,3.76,0,0,0-.15-1.2,3.8,3.8,0,0,0-3.69-2.79c-2.52,0-4.32,2.13-4.32,5.49,0,2.85,1.44,5.22,4.29,5.22a3.86,3.86,0,0,0,3.66-2.7,4.59,4.59,0,0,0,.21-1.41Z"/><path class="cls-2" d="M849.89,423.74a1.64,1.64,0,0,1-3.27,0,1.61,1.61,0,0,1,1.65-1.65A1.57,1.57,0,0,1,849.89,423.74ZM847,442.34V427.82h2.64v14.52Z"/><path class="cls-2" d="M855.44,435.56c.06,3.57,2.34,5,5,5a9.55,9.55,0,0,0,4-.75l.45,1.89a11.76,11.76,0,0,1-4.83.9c-4.47,0-7.14-2.94-7.14-7.32s2.58-7.83,6.81-7.83c4.74,0,6,4.17,6,6.84a10,10,0,0,1-.09,1.23Zm7.74-1.89c0-1.68-.69-4.29-3.66-4.29-2.67,0-3.84,2.46-4,4.29Z"/><path class="cls-2" d="M868.64,439.64a6.92,6.92,0,0,0,3.48,1.05c1.92,0,2.82-1,2.82-2.16s-.75-1.95-2.7-2.67c-2.61-.93-3.84-2.37-3.84-4.11,0-2.34,1.89-4.26,5-4.26a7.25,7.25,0,0,1,3.57.9l-.66,1.92a5.65,5.65,0,0,0-3-.84c-1.56,0-2.43.9-2.43,2s.87,1.74,2.76,2.46c2.52,1,3.81,2.22,3.81,4.38,0,2.55-2,4.35-5.43,4.35a8.28,8.28,0,0,1-4.08-1Z"/><text class="cls-3" transform="translate(-418.96 525.48)"><tspan class="cls-4">F</tspan><tspan x="5.47" y="0">o</tspan><tspan class="cls-5" x="12.06" y="0">r</tspan><tspan class="cls-6" x="15.89" y="0">g</tspan><tspan x="22.52" y="0">ing Health </tspan><tspan class="cls-7" x="76.87" y="0">I</tspan><tspan x="79.86" y="0">nn</tspan><tspan class="cls-8" x="93.18" y="0">o</tspan><tspan class="cls-9" x="99.68" y="0">va</tspan><tspan x="111.14" y="0">tion</tspan><tspan class="cls-10" x="131.17" y="0">s</tspan><tspan x="135.79" y="0">, </tspan><tspan class="cls-11" x="140.82" y="0">C</tspan><tspan class="cls-12" x="147.74" y="0">r</tspan><tspan x="151.61" y="0">a</tspan><tspan class="cls-13" x="157.39" y="0">f</tspan><tspan x="161.03" y="0">ting </tspan><tspan class="cls-8" x="183.72" y="0">C</tspan><tspan x="190.59" y="0">a</tspan><tspan class="cls-14" x="196.38" y="0">r</tspan><tspan x="200.18" y="0">e </tspan><tspan class="cls-15" x="208.74" y="0">S</tspan><tspan x="214.73" y="0">olutions</tspan></text><path class="cls-1" d="M526.27,457.76h7.26v1.46H528v4.48h5.1v1.44H528v6.1h-1.74Z"/><path class="cls-2" d="M545.47,466.32c0,3.58-2.48,5.14-4.82,5.14-2.62,0-4.64-1.92-4.64-5,0-3.24,2.12-5.14,4.8-5.14S545.47,463.36,545.47,466.32Zm-7.68.1c0,2.12,1.22,3.72,2.94,3.72s2.94-1.58,2.94-3.76c0-1.64-.82-3.72-2.9-3.72S537.79,464.58,537.79,466.42Z"/><path class="cls-2" d="M549.07,464.58c0-1.14,0-2.12-.08-3h1.54l.06,1.9h.08a2.9,2.9,0,0,1,2.68-2.12,1.9,1.9,0,0,1,.5.06v1.66a2.64,2.64,0,0,0-.6-.06,2.47,2.47,0,0,0-2.36,2.26,5,5,0,0,0-.08.82v5.16h-1.74Z"/><path class="cls-2" d="M565.17,461.56c0,.7-.08,1.48-.08,2.66v5.62c0,2.22-.44,3.58-1.38,4.42a5.13,5.13,0,0,1-3.52,1.16,6.25,6.25,0,0,1-3.22-.8l.44-1.34a5.46,5.46,0,0,0,2.84.76c1.8,0,3.12-.94,3.12-3.38v-1.08h0a3.46,3.46,0,0,1-3.08,1.62c-2.4,0-4.12-2-4.12-4.72,0-3.28,2.14-5.14,4.36-5.14a3.22,3.22,0,0,1,3,1.68h0l.08-1.46Zm-1.82,3.82a2.51,2.51,0,0,0-.1-.8,2.54,2.54,0,0,0-2.46-1.86c-1.68,0-2.88,1.42-2.88,3.66,0,1.9,1,3.48,2.86,3.48a2.57,2.57,0,0,0,2.44-1.8,3.06,3.06,0,0,0,.14-.94Z"/><path class="cls-2" d="M571.23,458.84a1.09,1.09,0,0,1-2.18,0,1.07,1.07,0,0,1,1.1-1.1A1,1,0,0,1,571.23,458.84Zm-2,12.4v-9.68H571v9.68Z"/><path class="cls-2" d="M575.33,464.18c0-1,0-1.82-.08-2.62h1.56l.1,1.6h0a3.56,3.56,0,0,1,3.2-1.82c1.34,0,3.42.8,3.42,4.12v5.78h-1.76v-5.58c0-1.56-.58-2.86-2.24-2.86a2.5,2.5,0,0,0-2.36,1.8,2.53,2.53,0,0,0-.12.82v5.82h-1.76Z"/><path class="cls-2" d="M596.15,461.56c0,.7-.08,1.48-.08,2.66v5.62c0,2.22-.44,3.58-1.38,4.42a5.13,5.13,0,0,1-3.52,1.16,6.25,6.25,0,0,1-3.22-.8l.44-1.34a5.46,5.46,0,0,0,2.84.76c1.8,0,3.12-.94,3.12-3.38v-1.08h0a3.46,3.46,0,0,1-3.08,1.62c-2.4,0-4.12-2-4.12-4.72,0-3.28,2.14-5.14,4.36-5.14a3.22,3.22,0,0,1,3,1.68h0l.08-1.46Zm-1.82,3.82a2.51,2.51,0,0,0-.1-.8,2.54,2.54,0,0,0-2.46-1.86c-1.68,0-2.88,1.42-2.88,3.66,0,1.9,1,3.48,2.86,3.48a2.57,2.57,0,0,0,2.44-1.8,3.06,3.06,0,0,0,.14-.94Z"/><path class="cls-2" d="M608.11,458.78v2.78h2.52v1.34h-2.52v5.22c0,1.2.34,1.88,1.32,1.88a3.92,3.92,0,0,0,1-.12l.08,1.32a4.31,4.31,0,0,1-1.56.24,2.44,2.44,0,0,1-1.9-.74,3.59,3.59,0,0,1-.68-2.52V462.9h-1.5v-1.34h1.5v-2.32Z"/><path class="cls-2" d="M614,457h1.76v6h0a3.27,3.27,0,0,1,1.26-1.24,3.62,3.62,0,0,1,1.8-.5c1.3,0,3.38.8,3.38,4.14v5.76h-1.76v-5.56c0-1.56-.58-2.88-2.24-2.88a2.53,2.53,0,0,0-2.36,1.76,2.13,2.13,0,0,0-.12.84v5.84H614Z"/><path class="cls-2" d="M627.45,466.72a3.1,3.1,0,0,0,3.32,3.36,6.36,6.36,0,0,0,2.68-.5l.3,1.26a7.84,7.84,0,0,1-3.22.6c-3,0-4.76-2-4.76-4.88s1.72-5.22,4.54-5.22c3.16,0,4,2.78,4,4.56a6.64,6.64,0,0,1-.06.82Zm5.16-1.26c0-1.12-.46-2.86-2.44-2.86-1.78,0-2.56,1.64-2.7,2.86Z"/><path class="cls-1" d="M643.55,457.76h7.26v1.46h-5.52v4.48h5.1v1.44h-5.1v6.1h-1.74Z"/><path class="cls-2" d="M662,468.6c0,1,0,1.88.08,2.64h-1.56l-.1-1.58h0a3.64,3.64,0,0,1-3.2,1.8c-1.52,0-3.34-.84-3.34-4.24v-5.66h1.76v5.36c0,1.84.56,3.08,2.16,3.08a2.54,2.54,0,0,0,2.32-1.6,2.57,2.57,0,0,0,.16-.9v-5.94H662Z"/><path class="cls-2" d="M668.43,458.78v2.78H671v1.34h-2.52v5.22c0,1.2.34,1.88,1.32,1.88a3.92,3.92,0,0,0,1-.12l.08,1.32a4.31,4.31,0,0,1-1.56.24,2.44,2.44,0,0,1-1.9-.74,3.59,3.59,0,0,1-.68-2.52V462.9h-1.5v-1.34h1.5v-2.32Z"/><path class="cls-2" d="M682.41,468.6c0,1,0,1.88.08,2.64h-1.56l-.1-1.58h0a3.64,3.64,0,0,1-3.2,1.8c-1.52,0-3.34-.84-3.34-4.24v-5.66H676v5.36c0,1.84.56,3.08,2.16,3.08a2.54,2.54,0,0,0,2.32-1.6,2.57,2.57,0,0,0,.16-.9v-5.94h1.76Z"/><path class="cls-2" d="M686.71,464.58c0-1.14,0-2.12-.08-3h1.54l.06,1.9h.08a2.9,2.9,0,0,1,2.68-2.12,1.9,1.9,0,0,1,.5.06v1.66a2.64,2.64,0,0,0-.6-.06,2.47,2.47,0,0,0-2.36,2.26,5,5,0,0,0-.08.82v5.16h-1.74Z"/><path class="cls-2" d="M695.41,466.72a3.1,3.1,0,0,0,3.32,3.36,6.36,6.36,0,0,0,2.68-.5l.3,1.26a7.84,7.84,0,0,1-3.22.6c-3,0-4.76-2-4.76-4.88s1.72-5.22,4.54-5.22c3.16,0,4,2.78,4,4.56a6.64,6.64,0,0,1-.06.82Zm5.16-1.26c0-1.12-.46-2.86-2.44-2.86-1.78,0-2.56,1.64-2.7,2.86Z"/><path class="cls-2" d="M720.21,466.32c0,3.58-2.48,5.14-4.82,5.14-2.62,0-4.64-1.92-4.64-5,0-3.24,2.12-5.14,4.8-5.14S720.21,463.36,720.21,466.32Zm-7.68.1c0,2.12,1.22,3.72,2.94,3.72s2.94-1.58,2.94-3.76c0-1.64-.82-3.72-2.9-3.72S712.53,464.58,712.53,466.42Z"/><path class="cls-2" d="M724,471.24V462.9h-1.36v-1.34H724v-.46a4.56,4.56,0,0,1,1.12-3.38,3.37,3.37,0,0,1,2.36-.9,4.08,4.08,0,0,1,1.5.28l-.24,1.36a2.63,2.63,0,0,0-1.12-.22c-1.5,0-1.88,1.32-1.88,2.8v.52h2.34v1.34h-2.34v8.34Z"/><path class="cls-1" d="M738.45,457.76v5.64H745v-5.64h1.76v13.48H745v-6.32h-6.52v6.32h-1.74V457.76Z"/><path class="cls-2" d="M752.05,466.72a3.1,3.1,0,0,0,3.32,3.36,6.36,6.36,0,0,0,2.68-.5l.3,1.26a7.84,7.84,0,0,1-3.22.6c-3,0-4.76-2-4.76-4.88s1.72-5.22,4.54-5.22c3.16,0,4,2.78,4,4.56a6.64,6.64,0,0,1-.06.82Zm5.16-1.26c0-1.12-.46-2.86-2.44-2.86-1.78,0-2.56,1.64-2.7,2.86Z"/><path class="cls-2" d="M767.83,471.24l-.14-1.22h-.06a3.61,3.61,0,0,1-3,1.44,2.76,2.76,0,0,1-3-2.78c0-2.34,2.08-3.62,5.82-3.6v-.2a2,2,0,0,0-2.2-2.24,4.82,4.82,0,0,0-2.52.72l-.4-1.16a6,6,0,0,1,3.18-.86c3,0,3.68,2,3.68,4v3.62a13.63,13.63,0,0,0,.16,2.32Zm-.26-4.94c-1.92,0-4.1.3-4.1,2.18a1.56,1.56,0,0,0,1.66,1.68,2.41,2.41,0,0,0,2.34-1.62,1.84,1.84,0,0,0,.1-.56Z"/><path class="cls-2" d="M773.49,457h1.76v14.2h-1.76Z"/><path class="cls-2" d="M781.71,458.78v2.78h2.52v1.34h-2.52v5.22c0,1.2.34,1.88,1.32,1.88a3.92,3.92,0,0,0,1-.12l.08,1.32a4.31,4.31,0,0,1-1.56.24,2.44,2.44,0,0,1-1.9-.74,3.59,3.59,0,0,1-.68-2.52V462.9h-1.5v-1.34H780v-2.32Z"/><path class="cls-2" d="M787.59,457h1.76v6h0a3.27,3.27,0,0,1,1.26-1.24,3.62,3.62,0,0,1,1.8-.5c1.3,0,3.38.8,3.38,4.14v5.76h-1.76v-5.56c0-1.56-.58-2.88-2.24-2.88a2.53,2.53,0,0,0-2.36,1.76,2.13,2.13,0,0,0-.12.84v5.84h-1.76Z"/><path class="cls-2" d="M807,470.88a6.48,6.48,0,0,1-2.78.56,4.6,4.6,0,0,1-4.82-4.94,4.92,4.92,0,0,1,5.2-5.14,5.88,5.88,0,0,1,2.44.5l-.4,1.36a4.08,4.08,0,0,0-2-.46,3.65,3.65,0,0,0-.06,7.28,5,5,0,0,0,2.16-.48Z"/><path class="cls-2" d="M815.77,471.24l-.14-1.22h-.06a3.61,3.61,0,0,1-3,1.44,2.76,2.76,0,0,1-3-2.78c0-2.34,2.08-3.62,5.82-3.6v-.2a2,2,0,0,0-2.2-2.24,4.82,4.82,0,0,0-2.52.72l-.4-1.16a6,6,0,0,1,3.18-.86c3,0,3.68,2,3.68,4v3.62a13.63,13.63,0,0,0,.16,2.32Zm-.26-4.94c-1.92,0-4.1.3-4.1,2.18a1.56,1.56,0,0,0,1.66,1.68,2.41,2.41,0,0,0,2.34-1.62,1.84,1.84,0,0,0,.1-.56Z"/><path class="cls-2" d="M821.43,464.58c0-1.14,0-2.12-.08-3h1.54l.06,1.9H823a2.9,2.9,0,0,1,2.68-2.12,1.9,1.9,0,0,1,.5.06v1.66a2.64,2.64,0,0,0-.6-.06,2.47,2.47,0,0,0-2.36,2.26,5,5,0,0,0-.08.82v5.16h-1.74Z"/><path class="cls-2" d="M830.13,466.72a3.1,3.1,0,0,0,3.32,3.36,6.36,6.36,0,0,0,2.68-.5l.3,1.26a7.84,7.84,0,0,1-3.22.6c-3,0-4.76-2-4.76-4.88s1.72-5.22,4.54-5.22c3.16,0,4,2.78,4,4.56a6.64,6.64,0,0,1-.06.82Zm5.16-1.26c0-1.12-.46-2.86-2.44-2.86-1.78,0-2.56,1.64-2.7,2.86Z"/></svg>